<?xml version="1.0" encoding="UTF-8"?>
<!DOCTYPE svg PUBLIC "-//W3C//DTD SVG 1.1//EN" "http://www.w3.org/Graphics/SVG/1.1/DTD/svg11.dtd">
<!-- Creator: CorelDRAW 2018 (64-Bit) -->
<svg xmlns="http://www.w3.org/2000/svg" xml:space="preserve" width="1920px" height="250px" version="1.1" style="shape-rendering:geometricPrecision; text-rendering:geometricPrecision; image-rendering:optimizeQuality; fill-rule:evenodd; clip-rule:evenodd"
viewBox="0 0 1920 250"
 xmlns:xlink="http://www.w3.org/1999/xlink">
 <defs>
  <style type="text/css">
   <![CDATA[
    .fil0 {fill:#0B0B0B}
    .fil3 {fill:#1D1D1D}
    .fil2 {fill:#282828}
    .fil1 {fill:#343434}
   ]]>
  </style>
 </defs>
 <g id="Layer_x0020_1">
  <metadata id="CorelCorpID_0Corel-Layer"/>
  <g id="_1214784782672">
   <rect class="fil0" width="1920" height="250"/>
   <path class="fil1" d="M1920 198.78c0,0 -373.171,24.879 -717.073,-74.633 -343.902,-99.513 -559.024,-98.05 -724.39,-73.172 -165.366,24.878 -478.536,102.44 -478.536,102.44l0 96.585 1919.999 0 0 -51.22z"/>
   <path class="fil2" d="M0.001 198.78c0,0 373.171,24.879 717.073,-74.633 343.902,-99.513 559.023,-98.05 724.39,-73.172 165.366,24.878 478.536,102.44 478.536,102.44l0 96.585 -1919.999 0 0 -51.22z"/>
   <path class="fil3" d="M475.603 250c0,0 475.61,-122.933 674.634,-139.031 199.025,-16.097 457.745,-31.984 677.409,20.227l92.354 22.219 0 96.585 -1444.397 0z"/>
  </g>
 </g>
</svg>
