<?xml version="1.0" encoding="utf-8"?>
<!-- Generator: Adobe Illustrator 25.2.0, SVG Export Plug-In . SVG Version: 6.00 Build 0)  -->
<svg version="1.1" id="Layer_1" xmlns="http://www.w3.org/2000/svg" xmlns:xlink="http://www.w3.org/1999/xlink" x="0px" y="0px"
	 viewBox="0 0 2048 2048" style="enable-background:new 0 0 2048 2048;" xml:space="preserve">
<style type="text/css">
	.st0{fill:#939598;}
	.st1{fill:#A7A9AC;}
	.st2{fill:#BCBEC0;}
	.st3{fill:#535359;}
	.st4{fill:#121214;}
	.st5{fill:#303033;}
	.st6{fill:#B4B6B8;}
	.st7{fill:#FFFFFF;}
	.st8{opacity:0.3;}
	.st9{fill:#16A89F;}
	.st10{fill:#BA6000;}
	.st11{fill:#FF8400;}
	.st12{fill:#1D374E;}
</style>
<g>
	<g>
		<g>
			<polygon class="st0" points="2028.74,1321.66 1189.66,1806.11 1189.66,1679.94 2028.74,1195.66 			"/>
			<polygon class="st1" points="1189.66,1806.11 272.14,1276.37 272.14,1150.19 1189.66,1679.94 			"/>
			<polygon class="st2" points="1189.66,1679.94 272.14,1150.19 1111.19,665.95 2028.74,1195.66 			"/>
		</g>
		<g>
			<path class="st3" d="M944.09,1615.17c0,12.9-9.16,18.19-20.43,11.71l-123.75-71.47c-11.2-6.43-20.46-22.36-20.46-35.3v-19.44
				c0-12.94,9.26-18.24,20.46-11.76l123.75,71.46c11.28,6.51,20.43,22.36,20.43,35.31V1615.17z"/>
			<path class="st4" d="M936.88,1606.57c0,11.75-8.4,16.61-18.61,10.72l-112.96-65.25c-10.28-5.87-18.61-20.37-18.61-32.2v-10.23
				c0-11.79,8.33-16.67,18.61-10.74l112.96,65.27c10.21,5.91,18.61,20.35,18.61,32.17V1606.57z"/>
		</g>
		<g>
			<path class="st3" d="M677.33,1461.13c0,12.92-9.16,18.22-20.41,11.75l-123.79-71.48c-11.18-6.43-20.41-22.36-20.41-35.31v-19.41
				c0-12.97,9.23-18.26,20.41-11.79l123.79,71.47c11.25,6.51,20.41,22.36,20.41,35.31V1461.13z"/>
			<path class="st4" d="M670.1,1452.53c0,11.75-8.35,16.63-18.63,10.74l-112.93-65.25c-10.21-5.87-18.58-20.37-18.58-32.2v-10.22
				c0-11.8,8.38-16.68,18.58-10.75l112.93,65.27c10.28,5.89,18.63,20.35,18.63,32.17V1452.53z"/>
		</g>
		<g>
			<polygon class="st4" points="1993.89,1198.32 1189.64,1662.54 1189.64,1579.36 1993.89,1115.34 			"/>
			<polygon class="st3" points="1189.64,1662.54 301.07,1149.53 301.07,1066.36 1189.64,1579.36 			"/>
		</g>
		<g>
			<polygon class="st0" points="2028.74,1152.44 1189.66,1636.9 1189.66,1510.86 1266.97,1376.97 2028.74,937.24 			"/>
			<polygon class="st1" points="1189.66,1636.9 272.14,1107.14 272.14,981.13 1189.66,1510.86 			"/>
			<polygon class="st3" points="1189.64,1603.35 838.76,1400.76 838.76,1353.01 1189.64,1555.6 			"/>
			<polygon class="st5" points="1189.64,1603.35 2028.74,1118.57 2028.74,1070.83 1189.64,1555.6 			"/>
			<polygon class="st6" points="1266.97,1376.97 349.44,847.21 272.14,981.13 1189.66,1510.86 			"/>
			<polygon class="st2" points="1266.97,1376.97 349.44,847.21 1111.19,407.49 2028.74,937.24 			"/>
			<polygon class="st7" points="617.59,942.84 457.02,850.13 588.32,774.35 748.89,867.06 			"/>
			<polygon class="st0" points="587.1,903.86 490.75,848.22 523.73,829.16 620.1,884.8 			"/>
			<polygon class="st0" points="1385.94,981.15 1877.18,697.57 1877.18,849.73 1796.71,803.28 1385.94,1040.39 			"/>
			<polygon class="st1" points="1385.94,1040.39 932.4,778.52 932.4,719.27 1385.94,981.15 			"/>
			<polygon class="st2" points="1385.94,981.15 932.4,719.27 1423.62,435.71 1877.18,697.57 			"/>
			<path class="st8" d="M1577.27,831.04l-388.12-224.08l88.99-51.38l388.12,224.09L1577.27,831.04z"/>
		</g>
		<g>
			<path class="st0" d="M1383.41,1218.2v-24.1l-11.59-4.42c-5.24-6.09-12.18-11.84-20.99-16.94c-43.47-25.1-113.98-25.12-157.48,0
				c-8.82,5.1-15.73,10.85-20.99,16.94l-11.62,4.42v24.1c0,16.44,10.91,32.88,32.61,45.45c43.5,25.08,114.01,25.11,157.43,0.01
				C1372.55,1251.08,1383.41,1234.63,1383.41,1218.2z"/>
			<path class="st1" d="M1350.77,1239.56c-43.42,25.12-113.93,25.07-157.43,0c-43.42-25.12-43.47-65.82,0-90.9
				c43.5-25.11,114.01-25.08,157.48,0C1394.29,1173.74,1394.29,1214.43,1350.77,1239.56z"/>
			<path class="st9" d="M1236.13,1232.87c-8.6,4.94-22.58,4.94-31.15,0c-8.64-5.01-8.62-13.07-0.05-18.02
				c8.62-4.97,22.6-4.98,31.2,0C1244.78,1219.8,1244.78,1227.87,1236.13,1232.87z"/>
		</g>
		<g>
			<path class="st10" d="M1162.75,1155.64v-14.03l-6.75-2.57c-3.05-3.56-7.09-6.89-12.23-9.87c-25.3-14.61-66.34-14.62-91.67,0
				c-5.11,2.97-9.16,6.31-12.2,9.87l-6.77,2.57v14.03c0,9.57,6.36,19.13,18.97,26.45c25.33,14.6,66.37,14.61,91.65,0.01
				C1156.42,1174.77,1162.75,1165.2,1162.75,1155.64z"/>
			<path class="st11" d="M1143.76,1168.07c-25.28,14.62-66.32,14.59-91.65,0c-25.25-14.62-25.3-38.31,0-52.92
				c25.33-14.61,66.37-14.6,91.67,0C1169.08,1129.77,1169.08,1153.45,1143.76,1168.07z"/>
		</g>
	</g>
	<g>
		<path class="st5" d="M1267.96,160.38c0,0-19.99-0.85-32.03,6.13l-1,0.57c-29.67,17.12-53.75,58.7-53.7,92.96l0.17,281.31
			l13.96,8.06v57.4l382.13,220.62l73.92-445.95C1651.41,381.48,1272.18,161.56,1267.96,160.38z"/>
		<polygon class="st4" points="1534.99,711.21 1534.99,719.2 1206.81,529.91 1206.81,312.68 1213.78,316.67 1213.78,525.92 		"/>
		<polygon class="st11" points="1534.99,502.22 1534.99,711.21 1213.78,525.92 1213.78,316.67 		"/>
		<polygon class="st12" points="1421.08,594.47 1373.28,511.69 1421.06,484.09 1468.87,566.86 		"/>
		<polygon class="st12" points="1471.3,535.11 1449.6,497.5 1471.3,484.97 1493.05,522.57 		"/>
		<polygon class="st12" points="1493.08,649.01 1458.47,589.07 1493.08,569.11 1527.66,629.04 		"/>
		<polygon class="st12" points="1268.65,451.41 1236.21,395.23 1268.65,376.52 1301.06,432.68 		"/>
		<polygon class="st12" points="1311.22,559.18 1226.05,510 1226.05,484.97 1311.22,534.14 		"/>
		<polygon class="st4" points="1195.36,549.41 1563.54,761.97 1577.49,753.92 1563.36,774.35 1195.36,559.77 		"/>
		<path class="st4" d="M1671.96,699.38l-0.12-281.45c-0.05-34.19-24.01-48.08-53.78-30.81l-1,0.57
			c-29.67,17.12-53.75,58.7-53.7,92.96l0.17,281.31l13.96-8.05v73.51l80.34-46.38v-73.52L1671.96,699.38z"/>
	</g>
	<g>
		<path class="st0" d="M1018.64,1712.09h-24.89c-7.96-8.72-17.58-16.44-28.45-23l0.05-0.03l-274.53-158.48l-0.02,0.02l0,0
			c-23.53-13.04-55.58-22.96-93.86-27.8c-79.98-10.12-163.5,4.99-211.09,34.94v-6.83h-39.21v61.08h0.07
			c-0.63,38.89,53.43,74.17,137.68,84.82c11.23,1.42,22.53,2.3,33.8,2.76c-0.02,0-0.05,0-0.07,0l188.92,109.07
			c0.8,6.49,2.34,13.01,4.8,19.49c22.43,59.18,108.09,92.63,191.31,74.68c69.14-14.92,114.78-60.6,115.44-109.55h0.05V1712.09z"/>
		<path class="st2" d="M1013.21,1680.89c-8.33-22.03-25.43-40.46-47.91-54.03l0.05-0.03l-274.53-158.49l-0.02,0.01
			c0,0.02,0,0.02,0,0.02c-23.53-13.04-55.58-22.98-93.86-27.81c-102.51-12.94-210.82,15.49-241.89,63.55
			c-31.1,48.05,26.81,97.51,129.35,110.45c11.23,1.42,22.53,2.31,33.8,2.78c-0.02-0.01-0.05-0.01-0.07-0.01l188.92,109.09
			c0.8,6.49,2.34,12.99,4.8,19.46c22.43,59.21,108.09,92.63,191.31,74.7C986.37,1802.62,1035.64,1740.1,1013.21,1680.89z"/>
		<path class="st1" d="M694.87,1547.05c-25.81,39.92-115.78,63.54-200.95,52.79c-85.15-10.76-133.27-51.84-107.45-91.76
			c25.82-39.92,115.81-63.55,200.95-52.79C672.58,1466.07,720.68,1507.13,694.87,1547.05z"/>
		<path class="st1" d="M828.79,1624.35c-69.14,14.91-110.08,66.86-91.43,116.03c18.63,49.17,89.77,76.95,158.89,62.04
			c69.14-14.92,110.09-66.86,91.43-116.03C969.06,1637.22,897.91,1609.45,828.79,1624.35z"/>
		<g>
			<g>
				<path class="st3" d="M616.76,1563.83c-41.96,24.27-110.11,24.27-152.12,0.03c-42.04-24.23-42.09-63.57-0.07-87.82
					c41.99-24.27,110.11-24.28,152.14-0.05C658.75,1500.24,658.78,1539.57,616.76,1563.83z"/>
			</g>
			<path d="M605.27,1556.52c-35.36,20.43-92.74,20.43-128.18,0.03c-35.41-20.42-35.41-53.56-0.05-74
				c35.36-20.45,92.77-20.45,128.18-0.05C640.63,1502.94,640.68,1536.07,605.27,1556.52z"/>
			<path class="st4" d="M625.63,1506.57c-3.83-8.34-11.38-16.21-22.7-22.75c-34.17-19.73-89.55-19.7-123.7,0.03
				c-11.4,6.59-18.97,14.54-22.75,22.95l-2.82,5.92l-0.02,6.82l0,0c0,12.93,8.55,25.85,25.65,35.73
				c34.19,19.71,89.58,19.7,123.7-0.05c17.07-9.84,25.62-22.77,25.6-35.68h0.02v-0.02l0,0v-7.27L625.63,1506.57z"/>
			<path class="st5" d="M602.98,1548c-34.12,19.74-89.51,19.74-123.7,0.05c-34.17-19.73-34.17-51.71-0.05-71.45
				c34.15-19.73,89.53-19.75,123.7-0.04C637.12,1496.3,637.15,1528.26,602.98,1548z"/>
			<g>
				<polygon class="st4" points="558.94,1512.31 605.63,1485.31 605.63,1474.16 541.12,1502.02 475.28,1473.46 475.28,1484.62 
					523.31,1512.31 475.94,1528.49 475.94,1539.66 493.77,1549.95 541.14,1522.6 588.8,1550.11 606.61,1539.81 606.61,1528.65 				
					"/>
				<polygon class="st3" points="558.94,1501.15 605.63,1474.16 587.8,1463.87 541.12,1490.86 493.09,1463.17 475.28,1473.46 
					523.31,1501.15 475.94,1528.49 493.77,1538.8 541.14,1511.44 588.8,1538.94 606.61,1528.65 				"/>
			</g>
			<g>
				<polygon class="st4" points="551.64,1482.5 530.52,1482.5 530.52,1473.98 541.07,1470.33 551.64,1473.97 				"/>
				<polygon class="st3" points="551.64,1473.97 530.52,1473.98 541.07,1461.8 				"/>
			</g>
			<g>
				<polygon class="st4" points="592.43,1518.2 592.43,1509.69 613.52,1503.59 613.52,1512.11 				"/>
				<polygon class="st3" points="592.43,1509.69 592.41,1497.5 613.52,1503.59 				"/>
			</g>
			<g>
				<polygon class="st4" points="531.03,1541.5 531.03,1532.96 552.15,1532.96 552.15,1541.47 541.63,1553.67 				"/>
				<polygon class="st3" points="531.03,1532.96 552.15,1532.96 541.63,1545.15 				"/>
			</g>
			<g>
				<polygon class="st4" points="490.26,1509.45 490.26,1517.97 469.15,1511.87 469.15,1503.36 				"/>
				<polygon class="st3" points="490.26,1497.26 490.26,1509.45 469.15,1503.36 				"/>
			</g>
		</g>
		<g>
			<path class="st5" d="M636.24,1605.33v13.9c0,2.81,5.31,5.11,11.81,5.11h33.59c6.5,0,11.81-2.3,11.81-5.11v-13.9H636.24z"/>
			<path class="st3" d="M693.46,1605.33c0,2.81-5.31,5.11-11.81,5.11h-33.59c-6.5,0-11.81-2.3-11.81-5.11c0-2.8,5.31-5.1,11.81-5.1
				h33.59C688.15,1600.23,693.46,1602.53,693.46,1605.33z"/>
		</g>
		<g>
			<path class="st5" d="M674.63,1627.51v13.87c0,2.83,5.33,5.13,11.81,5.12h33.59c6.5,0,11.81-2.29,11.81-5.12v-13.87H674.63z"/>
			<path class="st3" d="M731.84,1627.51c0,2.81-5.31,5.12-11.81,5.12h-33.59c-6.48,0-11.81-2.3-11.81-5.12
				c0-2.81,5.33-5.12,11.84-5.12h33.56C726.53,1622.39,731.84,1624.69,731.84,1627.51z"/>
		</g>
		<g>
			<path class="st12" d="M936.03,1669.84l-95.47-18.18c-20.9-3.97-43.42,2.59-50.24,14.66c-6.87,12.07,4.5,25.06,25.35,29.04l0,0
				l95.47,18.19l0,0c0.02,0,0.05,0,0.05,0c20.92,3.96,43.42-2.61,50.27-14.67C968.33,1686.8,956.95,1673.8,936.03,1669.84z"/>
			<g>
				<path class="st10" d="M863.4,1657.24l-14.73,5.01c-12.06-4.97-28.3-5.08-40.45-0.2l-15.15-5.15v16.9l0,0
					c0.17,5.07,3.53,10.13,10.3,14.02c13.69,7.9,35.97,7.9,49.71,0c6.72-3.89,10.16-8.95,10.23-14.02h0.1V1657.24z"/>
				<path class="st11" d="M803.37,1671.44c-13.74-7.94-13.74-20.77,0-28.72c13.69-7.91,35.97-7.91,49.71,0
					c13.74,7.92,13.74,20.78,0,28.72C839.34,1679.37,817.06,1679.37,803.37,1671.44z"/>
			</g>
			<g>
				<path class="st10" d="M959.53,1675.58l-14.71,5.01c-12.06-4.99-28.3-5.08-40.48-0.19l-15.12-5.16v16.9l0,0
					c0.17,5.07,3.53,10.14,10.28,14c13.71,7.93,36,7.93,49.73,0c6.72-3.87,10.16-8.94,10.23-14h0.07V1675.58z"/>
				<path class="st11" d="M899.5,1689.77c-13.71-7.93-13.71-20.79,0-28.73c13.71-7.9,36-7.9,49.73,0c13.74,7.93,13.74,20.8,0,28.73
					C935.5,1697.69,913.21,1697.69,899.5,1689.77z"/>
			</g>
		</g>
		<g>
			<path class="st12" d="M910.29,1720.37l-95.47-18.21c-20.87-3.95-43.4,2.62-50.24,14.66c-6.87,12.07,4.5,25.06,25.35,29.04l0,0
				l95.5,18.21l0,0l0.02,0.01c20.92,3.95,43.42-2.62,50.29-14.69C942.58,1737.34,931.21,1724.33,910.29,1720.37z"/>
			<g>
				<path class="st10" d="M837.66,1707.78l-14.73,4.99c-12.03-4.98-28.28-5.07-40.45-0.19l-15.15-5.15v16.9l0,0
					c0.17,5.07,3.56,10.15,10.3,14c13.69,7.93,35.97,7.93,49.71,0c6.72-3.87,10.16-8.94,10.25-14h0.07V1707.78z"/>
				<path class="st11" d="M777.63,1721.97c-13.71-7.95-13.71-20.79,0-28.73c13.69-7.9,35.97-7.9,49.71,0
					c13.76,7.93,13.76,20.77,0,28.73C813.6,1729.88,791.31,1729.88,777.63,1721.97z"/>
			</g>
			<g>
				<path class="st10" d="M933.79,1726.11l-14.71,5.01c-12.03-4.98-28.3-5.09-40.48-0.21l-15.12-5.14v16.88l0,0
					c0.17,5.07,3.55,10.16,10.3,14.03c13.69,7.92,35.97,7.92,49.71,0c6.72-3.89,10.16-8.96,10.26-14.03h0.05V1726.11z"/>
				<path class="st11" d="M873.78,1740.3c-13.74-7.94-13.74-20.78,0-28.73c13.69-7.92,35.97-7.92,49.71,0
					c13.76,7.93,13.76,20.79,0,28.73C909.75,1748.22,887.47,1748.22,873.78,1740.3z"/>
			</g>
		</g>
	</g>
	<g>
		<path class="st0" d="M681.81,1328.58l-20.36,14.32c-11.54-2.56-23.84-3.34-36.51-2.46l0.02-0.06l-315.74,28.22v0.02l0,0
			c-26.77,2.86-58.67,13.19-92.79,31.24c-71.24,37.71-130.88,98.1-152.58,149.97l-3.95-5.59l-32.08,22.55l35.12,49.97l0.07-0.04
			c21.84,32.18,86.36,29.96,161.4-9.78c10.01-5.3,19.75-11.07,29.25-17.18c-0.02,0.01-0.05,0.02-0.07,0.05l217.29-19.41
			c4.38,4.85,9.4,9.3,15.12,13.19c52.39,35.52,141.7,13.63,199.47-48.92c47.98-51.96,59.06-115.57,31.44-156l0.05-0.02
			L681.81,1328.58z"/>
		<path class="st2" d="M659.43,1306.18c-19.48-13.24-44.08-18.49-70.26-16.66v-0.06l-315.74,28.2v0.02c0,0.02,0,0.02,0,0.02
			c-26.74,2.86-58.67,13.15-92.77,31.22c-91.31,48.36-163.57,133.89-161.35,191.09c2.19,57.2,78.01,64.36,169.34,15.98
			c9.99-5.28,19.75-11.06,29.25-17.16c-0.02,0-0.05,0.01-0.07,0.02l217.3-19.39c4.38,4.85,9.38,9.28,15.1,13.15
			c52.41,35.55,141.7,13.64,199.47-48.89C707.46,1421.2,711.82,1341.71,659.43,1306.18z"/>
		<path class="st1" d="M322.02,1379.74c1.83,47.49-58.18,118.56-134.05,158.75c-75.84,40.15-138.85,34.22-140.67-13.29
			c-1.83-47.5,58.18-118.58,134.05-158.74C257.21,1326.3,320.17,1332.24,322.02,1379.74z"/>
		<path class="st1" d="M476.04,1365.97c-48,51.95-51.63,118-8.09,147.49c43.52,29.52,117.71,11.34,165.66-40.61
			c48-51.96,51.63-118,8.09-147.49C598.18,1295.84,524.02,1314.02,476.04,1365.97z"/>
		<g>
			<g>
				<path class="st3" d="M267.76,1438.38c-20.36,43.99-76.11,83.17-124.43,87.51c-48.32,4.35-70.97-27.8-50.56-71.81
					c20.38-44,76.11-83.19,124.45-87.53C265.54,1362.21,288.19,1394.38,267.76,1438.38z"/>
			</g>
			<path d="M254.16,1439.01c-17.19,37.06-64.13,70.06-104.87,73.73c-40.7,3.65-59.77-23.45-42.57-60.52
				c17.17-37.06,64.13-70.07,104.82-73.75C252.27,1374.85,271.36,1401.92,254.16,1439.01z"/>
			<path class="st4" d="M242.09,1386.44c-7.92-4.63-18.63-6.72-31.64-5.57c-39.31,3.52-84.61,35.39-101.19,71.16
				c-5.53,11.95-7.16,22.81-5.41,31.87l1.09,6.47l3.9,5.59l0,0c7.43,10.58,21.87,16.23,41.52,14.48
				c39.31-3.53,84.61-35.39,101.17-71.16c8.3-17.88,7.87-33.37,0.44-43.91v-0.01v-0.02l0,0l-4.19-5.94L242.09,1386.44z"/>
			<path class="st5" d="M247.37,1433.36c-16.56,35.77-61.86,67.61-101.17,71.16c-39.28,3.51-57.67-22.65-41.11-58.41
				c16.58-35.78,61.88-67.65,101.17-71.17C245.59,1371.41,263.98,1397.56,247.37,1433.36z"/>
			<g>
				<polygon class="st4" points="190.84,1429.48 213.49,1380.55 207.09,1371.41 170.34,1431.32 100.05,1445.81 106.45,1454.93 
					161.69,1449.97 132.25,1490.45 138.65,1499.58 159.16,1497.76 182.17,1448.13 237,1443.24 245.64,1424.57 239.21,1415.44 				
					"/>
				<polygon class="st3" points="184.41,1420.35 207.09,1371.41 186.58,1373.25 163.91,1422.18 108.69,1427.15 100.05,1445.81 
					155.26,1440.84 132.25,1490.45 152.75,1488.62 175.77,1439.01 230.56,1434.09 239.21,1415.44 				"/>
			</g>
			<g>
				<polygon class="st4" points="167.7,1409.29 150.44,1421.44 145.54,1414.47 152.07,1405.41 162.81,1402.32 				"/>
				<polygon class="st3" points="162.81,1402.32 145.54,1414.47 147.15,1398.44 				"/>
			</g>
			<g>
				<polygon class="st4" points="221.63,1415.05 216.73,1408.08 230.47,1390.96 235.36,1397.94 				"/>
				<polygon class="st3" points="216.73,1408.08 209.69,1398.12 230.47,1390.96 				"/>
			</g>
			<g>
				<polygon class="st4" points="184.78,1469.41 179.88,1462.43 197.15,1450.29 202.05,1457.24 200.46,1473.28 				"/>
				<polygon class="st3" points="179.88,1462.43 197.15,1450.29 195.54,1466.3 				"/>
			</g>
			<g>
				<polygon class="st4" points="133,1466.63 137.89,1473.61 117.12,1480.76 112.22,1473.79 				"/>
				<polygon class="st3" points="125.99,1456.66 133,1466.63 112.22,1473.79 				"/>
			</g>
		</g>
		<g>
			<path class="st5" d="M307.58,1461.13l7.99,11.37c1.61,2.3,7.28,1.13,12.59-2.61l27.47-19.31c5.33-3.74,8.35-8.68,6.72-10.99
				l-7.99-11.36L307.58,1461.13z"/>
			<path class="st3" d="M354.36,1428.24c1.63,2.3-1.39,7.23-6.72,10.97l-27.47,19.31c-5.31,3.74-10.98,4.91-12.59,2.61
				c-1.61-2.29,1.41-7.22,6.72-10.96l27.47-19.32C347.1,1427.11,352.76,1425.95,354.36,1428.24z"/>
		</g>
		<g>
			<path class="st5" d="M351.73,1457.21l7.97,11.34c1.63,2.31,7.3,1.13,12.61-2.61l27.47-19.31c5.31-3.74,8.35-8.66,6.72-10.97
				l-7.99-11.35L351.73,1457.21z"/>
			<path class="st3" d="M398.52,1424.3c1.63,2.3-1.39,7.23-6.72,10.97l-27.47,19.31c-5.28,3.73-10.98,4.92-12.59,2.62
				c-1.63-2.3,1.41-7.26,6.72-11l27.47-19.3C391.23,1423.17,396.91,1422,398.52,1424.3z"/>
		</g>
		<g>
			<path class="st12" d="M589.92,1341.52l-88.56,40.02c-19.39,8.78-34.05,27.09-32.68,40.89c1.31,13.82,18.1,17.91,37.43,9.18l0,0
				l88.58-40.02l0,0c0.02-0.01,0.05-0.02,0.05-0.02c19.39-8.79,34.02-27.11,32.68-40.92
				C626.09,1336.82,609.31,1332.73,589.92,1341.52z"/>
			<g>
				<path class="st10" d="M523.26,1372.97l-9.18,12.57c-12.71,2.88-26.06,12.12-33.19,23.1l-15.37,4.51l9.72,13.82l0,0
					c3.07,4.06,8.72,6.26,16.49,5.54c15.76-1.4,33.98-14.21,40.67-28.58c3.26-7.04,3.16-13.17,0.32-17.36l0.07-0.05L523.26,1372.97z
					"/>
				<path class="st11" d="M482.32,1419.11c-15.81,1.4-23.19-9.1-16.51-23.49c6.62-14.35,24.86-27.17,40.65-28.58
					c15.81-1.42,23.19,9.1,16.51,23.49C516.3,1404.91,498.08,1417.73,482.32,1419.11z"/>
			</g>
			<g>
				<path class="st10" d="M612.45,1332.7l-9.16,12.55c-12.74,2.85-26.06,12.12-33.22,23.11l-15.34,4.47l9.72,13.83l0,0
					c3.05,4.04,8.72,6.27,16.47,5.54c15.78-1.39,34-14.21,40.67-28.59c3.29-7.04,3.19-13.15,0.31-17.34l0.07-0.03L612.45,1332.7z"/>
				<path class="st11" d="M571.49,1378.83c-15.76,1.4-23.16-9.12-16.51-23.5c6.67-14.35,24.91-27.17,40.7-28.61
					c15.78-1.41,23.19,9.12,16.51,23.5C605.48,1364.61,587.27,1377.42,571.49,1378.83z"/>
			</g>
		</g>
		<g>
			<path class="st12" d="M597.91,1397.66l-88.55,40.02c-19.36,8.77-34.02,27.09-32.69,40.88c1.31,13.82,18.1,17.91,37.43,9.18l0,0
				l88.6-40.02l0,0h0.02c19.39-8.8,34.02-27.12,32.71-40.94C634.1,1392.97,617.32,1388.86,597.91,1397.66z"/>
			<g>
				<path class="st10" d="M531.25,1429.12l-9.18,12.55c-12.69,2.85-26.03,12.12-33.19,23.1l-15.37,4.51l9.72,13.82l0,0
					c3.07,4.06,8.74,6.26,16.49,5.54c15.76-1.39,34-14.2,40.67-28.59c3.26-7.03,3.16-13.15,0.34-17.35l0.05-0.03L531.25,1429.12z"/>
				<path class="st11" d="M490.31,1475.25c-15.81,1.38-23.19-9.12-16.54-23.5c6.67-14.33,24.89-27.14,40.67-28.58
					c15.83-1.42,23.21,9.09,16.53,23.5C524.29,1461.04,506.04,1473.86,490.31,1475.25z"/>
			</g>
			<g>
				<path class="st10" d="M620.44,1388.84l-9.16,12.55c-12.69,2.84-26.08,12.1-33.22,23.1l-15.34,4.49l9.72,13.81l0,0
					c3.05,4.05,8.74,6.27,16.49,5.55c15.76-1.39,33.98-14.21,40.67-28.58c3.26-7.05,3.14-13.18,0.32-17.38l0.05-0.02L620.44,1388.84
					z"/>
				<path class="st11" d="M579.5,1434.96c-15.78,1.4-23.19-9.1-16.51-23.5c6.65-14.35,24.89-27.17,40.67-28.58
					c15.81-1.44,23.21,9.09,16.51,23.49C613.5,1420.76,595.26,1433.57,579.5,1434.96z"/>
			</g>
		</g>
	</g>
</g>
</svg>
